# xmcd
#
# Track frame offsets: 
#        150
#        11862
#        24370
#        36667
#        50752
#        63352
#        77845
#        89090
#        100875
#        113792
#        124962
#        137875
#        150225
#        160812
#        174265
#        186930
#        196942
#        210102
#        222997
#        237262
#        250057
#        263090
#        274835
#        287957
#        300087
#
# Disc length: 4167 seconds
#
# Revision: 5
# Processed by: cddbd v1.5.2PL0 Copyright (c) Steve Scherf et al.
# Submitted via: ExactAudioCopyFreeDBPlugin 1.0
#
DISCID=61104519
DTITLE=Various Artist - The Vee-Jay Story:  40 Years of Classic Hits,
DTITLE=1953-1993 [box set]
DYEAR=1993
DGENRE=Rhythm and Blues
TTITLE0=The Spaniels - Baby, It's You
TTITLE1=Jimmy Reed - High and Lonesome
TTITLE2=The Spaniels - Goodnite Sweetheart, Goodnite
TTITLE3=Jimmy Reed - You Don't Have To Go
TTITLE4=The El Dorados - My Loving Baby
TTITLE5=The El Dorados - Annie's Answer
TTITLE6=The 5 Echoes - I Really Do
TTITLE7=The El Dorados - At My Front Door
TTITLE8=Jay McShann - Hands Off (Pricilla Bowman, vocals)
TTITLE9=The El Dorados - I'll Be Forever Loving You
TTITLE10=The Kool Gents - This is the Night
TTITLE11=Billy Emerson - Every Woman I Know
TTITLE12=Jimmy Reed - Ain't That Loving You
TTITLE13=Eddie Taylor - Big Town Playboy
TTITLE14=The Magnificents - Up on the Mountain
TTITLE15=John Lee Hooker - Dimples
TTITLE16=The Dells - Oh What a Nite
TTITLE17=The El Dorados - Bim Bam Boom
TTITLE18=Pee Wee Crayton - Telephone is Ringing
TTITLE19=Sonny Till's Orioles - For All We Know
TTITLE20=The Spaniels - You Gave Me Peace of Mind
TTITLE21=Pee Wee Crayton - I Found Peace of Mind
TTITLE22=The Delegates - Mother's Son
TTITLE23=Billy Emerson - The Pleasure is All Mine
TTITLE24=Jimmy Reed - Honest I Do
EXTD=
EXTT0=
EXTT1=
EXTT2=
EXTT3=
EXTT4=
EXTT5=
EXTT6=
EXTT7=
EXTT8=
EXTT9=
EXTT10=
EXTT11=
EXTT12=
EXTT13=
EXTT14=
EXTT15=
EXTT16=
EXTT17=
EXTT18=
EXTT19=
EXTT20=
EXTT21=
EXTT22=
EXTT23=
EXTT24=
PLAYORDER=
